<svg xmlns="http://www.w3.org/2000/svg" viewBox="0 0 32 32">
  <!-- Rounded green background matching primary color #006644 -->
  <rect width="32" height="32" rx="6" ry="6" fill="#006644"/>

  <!-- Book-open icon (based on Font Awesome book-open) -->
  <g transform="translate(4, 7)">
    <path fill="#ffffff" d="M12 0C10.1 0 8.4 0.6 7 1.7V15.3C8.4 14.2 10.1 13.5 12 13.5C13.9 13.5 15.6 14.2 17 15.3V1.7C15.6 0.6 13.9 0 12 0Z"/>
    <path fill="#ffffff" d="M5.5 2.5C3.8 2.5 2.2 3 0.8 3.9C0.3 4.2 0 4.8 0 5.4V16.1C0 17.2 1.2 17.9 2.2 17.4C3.5 16.7 4.9 16.3 6.4 16.3C8.3 16.3 10.1 16.9 11.5 18C11.8 18.2 12.2 18.2 12.5 18C13.9 16.9 15.7 16.3 17.6 16.3C19.1 16.3 20.5 16.7 21.8 17.4C22.8 17.9 24 17.2 24 16.1V5.4C24 4.8 23.7 4.2 23.2 3.9C21.8 3 20.2 2.5 18.5 2.5C16.3 2.5 14.2 3.3 12.6 4.7C12.3 5 11.7 5 11.4 4.7C9.8 3.3 7.7 2.5 5.5 2.5Z" opacity="0.9"/>
  </g>
</svg>
